{"title":"Khiladi 786 (2012) - Hindi - DVDRip - XviD - 1CDRip - ESubs","uid":8002367,"size":741021149,"categoryP":"video","categoryS":"movies","magnet":"?xt=urn:btih:ffea22cdfe2ced575e384e30fdbaadd999e792c6&amp;dn=Khiladi+786+%282012%29+-+Hindi+-+DVDRip+-+XviD+-+1CDRip+-+ESubs&amp;tr=udp%3A%2F%2Ftracker.openbittorrent.com%3A80&amp;tr=udp%3A%2F%2Fopen.demonii.com%3A1337&amp;tr=udp%3A%2F%2Ftracker.coppersurfer.tk%3A6969&amp;tr=udp%3A%2F%2Fexodus.desync.com%3A6969","seeders":0,"leechers":1,"uploader":"HDvideos","files":4,"time":1357805021,"description":"mastitorrents.com\n  &lt;a href=&quot;\nhttp://mastitorrents.com/forums/index.php&quot; rel=&quot;nofollow&quot; target=&quot;_NEW&quot;&gt;\nhttp://mastitorrents.com/forums/index.php&lt;/a&gt;\n  &lt;a href=&quot;\nhttp://thepiratebay.se/user/HDvideos/0/7&quot; rel=&quot;nofollow&quot; target=&quot;_NEW&quot;&gt;\nhttp://thepiratebay.se/user/HDvideos/0/7&lt;/a&gt;\n\nKhiladi 786 (2012) - Hindi - DVDRip - XviD - 1CDRip - ESubs\n\nFormat                                   : AVI\nFormat/Info                              : Audio Video Interleave\nFile size                                : 695 MiB\nDuration                                 : 2h 19mn\nOverall bit rate                         : 695 Kbps\nWriting library                          : VirtualDub build 24463/release\n\nVideo\n\nCodec ID                                 : XVID\nCodec ID/Hint                            : XviD\nDuration                                 : 2h 19mn\nBit rate                                 : 562 Kbps\nWidth                                    : 688 pixels\nHeight                                   : 288 pixels\nDisplay aspect ratio                     : 2.40:1\nFrame rate                               : 23.976 fps\nColor space                              : YUV\nChroma subsampling                       : 4:2:0\nBit depth                                : 8 bits\nScan type                                : Progressive\nCompression mode                         : Lossy\nBits/(Pixel*Frame)                       : 0.118\nStream size                              : 562 MiB (81%)\n\nAudio\n\nCodec ID                                 : 2000\nDuration                                 : 2h 19mn\nBit rate mode                            : Constant\nBit rate                                 : 128 Kbps\nChannel(s)                               : 6 channels\nChannel positions                        : Front: L C R, Side: L R, LFE\nSampling rate                            : 48.0 KHz\nBit depth                                : 16 bits\nCompression mode                         : Lossy\nStream size                              : 128 MiB (18%)\n\nScreens: &lt;a href=&quot;\nhttp://img5.imageshack.us/img5/8839/coverptk.jpg&quot; rel=&quot;nofollow&quot; target=&quot;_NEW&quot;&gt;\nhttp://img5.imageshack.us/img5/8839/coverptk.jpg&lt;/a&gt; &lt;a href=&quot;\nhttp://foreverbilgisayar.com/dpi/image.php?id=CBCB_50EE074E&amp;jpg&quot; rel=&quot;nofollow&quot; target=&quot;_NEW&quot;&gt;\nhttp://foreverbilgisayar.com/dpi/image.php?id=CBCB_50EE074E&amp;jpg&lt;/a&gt; &lt;a href=&quot;\nhttp://foreverbilgisayar.com/dpi/image.php?id=66A4_50EE074E&amp;jpg&quot; rel=&quot;nofollow&quot; target=&quot;_NEW&quot;&gt;\nhttp://foreverbilgisayar.com/dpi/image.php?id=66A4_50EE074E&amp;jpg&lt;/a&gt; &lt;a href=&quot;\nhttp://foreverbilgisayar.com/dpi/image.php?id=C9F4_50EE074E&amp;jpg&quot; rel=&quot;nofollow&quot; target=&quot;_NEW&quot;&gt;\nhttp://foreverbilgisayar.com/dpi/image.php?id=C9F4_50EE074E&amp;jpg&lt;/a&gt; &lt;a href=&quot;\nhttp://foreverbilgisayar.com/dpi/image.php?id=0E37_50EE074E&amp;jpg&quot; rel=&quot;nofollow&quot; target=&quot;_NEW&quot;&gt;\nhttp://foreverbilgisayar.com/dpi/image.php?id=0E37_50EE074E&amp;jpg&lt;/a&gt; &lt;a href=&quot;\nhttp://foreverbilgisayar.com/dpi/image.php?id=BBBB_50EE074E&amp;jpg&quot; rel=&quot;nofollow&quot; target=&quot;_NEW&quot;&gt;\nhttp://foreverbilgisayar.com/dpi/image.php?id=BBBB_50EE074E&amp;jpg&lt;/a&gt; &lt;a href=&quot;\nhttp://foreverbilgisayar.com/dpi/image.php?id=542C_50EE074E&amp;jpg&quot; rel=&quot;nofollow&quot; target=&quot;_NEW&quot;&gt;\nhttp://foreverbilgisayar.com/dpi/image.php?id=542C_50EE074E&amp;jpg&lt;/a&gt; &lt;a href=&quot;\nhttp://foreverbilgisayar.com/dpi/image.php?id=F90A_50EE074E&amp;jpg&quot; rel=&quot;nofollow&quot; target=&quot;_NEW&quot;&gt;\nhttp://foreverbilgisayar.com/dpi/image.php?id=F90A_50EE074E&amp;jpg&lt;/a&gt; &lt;a href=&quot;\nhttp://foreverbilgisayar.com/dpi/image.php?id=5B99_50EE074E&amp;jpg&quot; rel=&quot;nofollow&quot; target=&quot;_NEW&quot;&gt;\nhttp://foreverbilgisayar.com/dpi/image.php?id=5B99_50EE074E&amp;jpg&lt;/a&gt; &lt;a href=&quot;\nhttp://foreverbilgisayar.com/dpi/image.php?id=19BA_50EE074E&amp;jpg&quot; rel=&quot;nofollow&quot; target=&quot;_NEW&quot;&gt;\nhttp://foreverbilgisayar.com/dpi/image.php?id=19BA_50EE074E&amp;jpg&lt;/a&gt; &lt;a href=&quot;\nhttp://foreverbilgisayar.com/dpi/image.php?id=4F2F_50EE074E&amp;jpg&quot; rel=&quot;nofollow&quot; target=&quot;_NEW&quot;&gt;\nhttp://foreverbilgisayar.com/dpi/image.php?id=4F2F_50EE074E&amp;jpg&lt;/a&gt; &lt;a href=&quot;\nhttp://foreverbilgisayar.com/dpi/image.php?id=4D78_50EE074E&amp;jpg&quot; rel=&quot;nofollow&quot; target=&quot;_NEW&quot;&gt;\nhttp://foreverbilgisayar.com/dpi/image.php?id=4D78_50EE074E&amp;jpg&lt;/a&gt; &lt;a href=&quot;\nhttp://foreverbilgisayar.com/dpi/image.php?id=DB1E_50EE074E&amp;jpg&quot; rel=&quot;nofollow&quot; target=&quot;_NEW&quot;&gt;\nhttp://foreverbilgisayar.com/dpi/image.php?id=DB1E_50EE074E&amp;jpg&lt;/a&gt; &lt;a href=&quot;\nhttp://foreverbilgisayar.com/dpi/image.php?id=E6C1_50EE074E&amp;jpg&quot; rel=&quot;nofollow&quot; target=&quot;_NEW&quot;&gt;\nhttp://foreverbilgisayar.com/dpi/image.php?id=E6C1_50EE074E&amp;jpg&lt;/a&gt; &lt;a href=&quot;\nhttp://foreverbilgisayar.com/dpi/image.php?id=6D72_50EE074E&amp;jpg&quot; rel=&quot;nofollow&quot; target=&quot;_NEW&quot;&gt;\nhttp://foreverbilgisayar.com/dpi/image.php?id=6D72_50EE074E&amp;jpg&lt;/a&gt;","torrent":{"xt":"urn:btih:ffea22cdfe2ced575e384e30fdbaadd999e792c6","amp;dn":"Khiladi+786+%282012%29+-+Hindi+-+DVDRip+-+XviD+-+1CDRip+-+ESubs","amp;tr":["udp%3A%2F%2Ftracker.openbittorrent.com%3A80","udp%3A%2F%2Fopen.demonii.com%3A1337","udp%3A%2F%2Ftracker.coppersurfer.tk%3A6969","udp%3A%2F%2Fexodus.desync.com%3A6969"],"infoHash":"ffea22cdfe2ced575e384e30fdbaadd999e792c6","infoHashBuffer":{"type":"Buffer","data":[255,234,34,205,254,44,237,87,94,56,78,48,253,186,173,217,153,231,146,198]},"announce":[],"urlList":[]}}